<svg id="Camada_1" data-name="Camada 1" xmlns="http://www.w3.org/2000/svg" viewBox="0 0 264.67 265.87"><defs><style>.cls-1{fill:#faae36;}.cls-1,.cls-2,.cls-3,.cls-4,.cls-5,.cls-6,.cls-7{fill-rule:evenodd;}.cls-2{fill:#60a97c;}.cls-3{fill:#86d1a3;}.cls-4{fill:#fdfab3;}.cls-5{fill:#fffed4;}.cls-6{fill:#f13430;}.cls-7{fill:#f0504d;}</style></defs><title>cake</title><path class="cls-1" d="M867.3,386.55c-48.8,11.5-42.1,53.7-42.1,89.4,0,20.7-1.4,119,1.1,131,10.5,49.3,61.4,41.6,91.3,41.6,28.1,0,109.3,3.7,131.3-1.5,16.3-3.9,29.7-15.9,35.5-29.7,7.4-17.7,4.2-101.1,4.2-125.5,0-40.1,8.9-82.6-29.8-101.5-17.1-8.4-41.6-5.2-61.8-5.2C970.2,385.05,887.6,381.75,867.3,386.55Z" transform="translate(-824.81 -383.95)"/><path class="cls-2" d="M1023.35,528.7l-13.1,89.3c-19.6-.1-84.2,4.1-96.1-2-6.1-14.5-11.6-68.6-14.3-89.5C906.15,528.3,1018.05,530.9,1023.35,528.7Z" transform="translate(-824.81 -383.95)"/><path class="cls-3" d="M1023.35,528.7l-13.1,89.3c-10.1-.1-32,1-52.6,1.3V529C988.45,529.7,1020.55,529.9,1023.35,528.7Z" transform="translate(-824.81 -383.95)"/><path class="cls-4" d="M886.05,501.3c5.2-11.6,5.1,0,3.1-14.5-2-14.7-1.7-30.9,17.9-39.3,8.1-3.5,10.1-1.5,17.2-2.8,14.7-2.6,19.2-22.1,45.5-11.7,14.2,5.6,11.4,11.8,20.4,19.4,19.9-7.4,39.1-.8,46.5,15.9,5.6,12.8,2.3,15.6-.1,27-2.5,12,5.3,15.2,2.4,29.2-4.8,23.4-33.9,37.4-53.1,19.4-6.6-6.2-2.8-5.8-11.7-7.3-6-1-8.7.7-16.2-1.4-6.5-1.8-6.3-3.3-13.1-5.1C933.75,563.5,865.65,546.5,886.05,501.3Z" transform="translate(-824.81 -383.95)"/><path class="cls-5" d="M958.05,430.1a41.68,41.68,0,0,1,11.8,3c14.2,5.6,11.4,11.8,20.4,19.4,19.9-7.4,39.1-.8,46.5,15.9,5.6,12.8,2.3,15.6-.1,27-2.5,12,5.3,15.2,2.4,29.2-4.8,23.4-33.9,37.4-53.1,19.4-6.6-6.2-2.8-5.8-11.7-7.3-6-1-8.7.7-16.2-1.4H958V430.1Z" transform="translate(-824.81 -383.95)"/><path class="cls-6" d="M958.15,444.9a16.5,16.5,0,1,0-16.5-16.5A16.52,16.52,0,0,0,958.15,444.9Z" transform="translate(-824.81 -383.95)"/><path class="cls-7" d="M958.15,411.9H958v33h.2a16.5,16.5,0,0,0,0-33Z" transform="translate(-824.81 -383.95)"/></svg>