<svg id="Camada_1" data-name="Camada 1" xmlns="http://www.w3.org/2000/svg" viewBox="0 0 264.67 265.87"><defs><style>.cls-1{fill:#a8d7b5;}.cls-1,.cls-2,.cls-3,.cls-4,.cls-5,.cls-6{fill-rule:evenodd;}.cls-2{fill:#dd7a1c;}.cls-3{fill:#cc6b10;}.cls-4{fill:#fefdfe;}.cls-5{fill:#e6e6e6;}.cls-6{fill:#d8571d;}</style></defs><title>coxa</title><path class="cls-1" d="M716.3,236.55c-48.8,11.5-42.1,53.7-42.1,89.4,0,20.7-1.4,119,1.1,131,10.5,49.3,61.4,41.6,91.3,41.6,28.1,0,109.3,3.7,131.3-1.5,16.3-3.9,29.7-15.9,35.5-29.7,7.4-17.7,4.2-101.1,4.2-125.5,0-40.1,8.9-82.6-29.8-101.5-17.1-8.4-41.6-5.2-61.8-5.2C819.2,235.05,736.6,231.75,716.3,236.55Z" transform="translate(-673.81 -233.95)"/><path class="cls-2" d="M740.8,256.55a46.51,46.51,0,0,0-19.5,21.9c-11.2,27.7,9.7,55,27.3,74.3,42.5,46.8,64.3,24.3,81.1,45.6,4.2,5.3,10.7,18.9,17,16l3.5-1.8c.4-2.3,4-6.8,5.6-8.9,2.7-3.5,4.6-5.1,7.9-5.7,1.3-1.1,14-7.1,10.6-15.4-2.5-6.2-6-.8-16.1-14.4-15.6-21.1-12-44.8-15-55.1-2-7-4-11.1-7.8-17.6-6-10.3-16.7-22.2-28.9-30.4-2.6,3.2-4.5,3-6.7,7.9-4.9,10.9-12.4,3.2-26.6,3.3-8.2.1-8.7,1.5-15.8-8C751.4,260.05,750.1,261,740.8,256.55Z" transform="translate(-673.81 -233.95)"/><path class="cls-3" d="M733.2,262a43.84,43.84,0,0,0-11.9,16.5c-11.2,27.7,9.7,55,27.3,74.3,42.5,46.8,64.3,24.3,81.1,45.6,4.2,5.3,10.7,18.9,17,16l3.5-1.8c.4-2.3,4-6.8,5.6-8.9.5-.7,1-1.2,1.4-1.8Z" transform="translate(-673.81 -233.95)"/><path class="cls-4" d="M850.2,412.45c5.3,5.5,13.8,13.8,15.5,19.7,2.8,9.9-8.8,11.5-3.1,25.9,7.3,18.3,22.9,13.6,29.4,2.4,3.9-6.6,2.2-9,2.9-14.6,9.9,4.9,18.5,6.2,21-7,2-10.2-6.6-13.5-16.8-14.5-13.2-1.3-11.2,3.4-21.1-8-5.2-6-10-12.5-14.4-18.4-3.3.6-5.1,2.1-7.9,5.7C854.2,405.65,850.6,410.15,850.2,412.45Z" transform="translate(-673.81 -233.95)"/><path class="cls-5" d="M850.2,412.45c5.3,5.5,13.8,13.8,15.5,19.7,2.8,9.9-8.8,11.5-3.1,25.9,7.3,18.3,22.9,13.6,29.4,2.4,3.7-6.4,2.3-8.8,2.8-14l-38.1-44a12.49,12.49,0,0,0-.9,1.2C854.2,405.65,850.6,410.15,850.2,412.45Z" transform="translate(-673.81 -233.95)"/><path class="cls-6" d="M740.8,256.55c9.3,4.4,10.6,3.5,16.6,11.6,7.1,9.6,7.6,8.1,15.8,8,14.3-.1,21.7,7.5,26.6-3.3,2.2-4.9,4.1-4.7,6.7-7.9-8.3-4.1-26,2.3-33.8,2.9-12.1.9-9.6-4.8-14.2-8.8C753.8,254.85,745.1,253.65,740.8,256.55Z" transform="translate(-673.81 -233.95)"/></svg>