<svg id="Camada_1" data-name="Camada 1" xmlns="http://www.w3.org/2000/svg" viewBox="0 0 264.67 265.8"><defs><style>.cls-1{fill:#a8d7b5;}.cls-1,.cls-2,.cls-3,.cls-4,.cls-5{fill-rule:evenodd;}.cls-2{fill:#fead38;}.cls-3{fill:#eda034;}.cls-4{fill:#e91d36;}.cls-5{fill:#c71e31;}</style></defs><title>hamburguer</title><path class="cls-1" d="M917.3,260.5c-48.8,11.5-42.1,53.7-42.1,89.4,0,20.7-1.4,119,1.1,131,10.5,49.3,61.4,41.6,91.3,41.6,28.1,0,109.3,3.7,131.3-1.5,16.3-3.9,29.7-15.9,35.5-29.7,7.4-17.7,4.2-101.1,4.2-125.5,0-40.1,8.9-82.6-29.8-101.5-17.1-8.4-41.6-5.2-61.8-5.2C1020.2,259.1,937.6,255.8,917.3,260.5Z" transform="translate(-874.81 -257.97)"/><path class="cls-2" d="M907.5,432.8c-6.9,27.7,14.2,30.6,43.1,30.6h122c31.1,0,41.8-2.1,40.6-30.6Zm-2.8-50.3c15.3,2.1,203,6.9,212.2-3,13.4-14.4-10.6-39.8-20.3-47.3C1043.4,290.6,882.9,307.2,904.7,382.5Z" transform="translate(-874.81 -257.97)"/><path class="cls-3" d="M907.5,432.8c-6.9,27.7,14.2,30.6,43.1,30.6h64.8V432.8ZM1015.4,310v75.6c-50.7-.2-102.9-2-110.6-3C890.4,333.1,954.5,309,1015.4,310Z" transform="translate(-874.81 -257.97)"/><path class="cls-4" d="M928.5,403.1c-.9.6-2.6-.2-3.1,1.1-111.7,34.9,171.6,27.7,185.8,18.4-1.8-11.7,3.5-17.2-17.9-15.3-15,1.3-7,6.1-24.3,11.9-29.8-4.6-17.8-23-52.3-3.4,22.4-30.2,34.3,1.3,52.3-.5,13.6-5.7,9.4-8.5,20.8-11,14.2-3.1,11.3,2.9,28.9-2.1-2.8-21.9-23.2-13.9-85.2-13.9H915.4C881.3,388.2,888.2,402.8,928.5,403.1Z" transform="translate(-874.81 -257.97)"/><path class="cls-5" d="M928.5,403.1c-.9.6-2.6-.2-3.1,1.1-69.6,21.7,14.1,27.1,90.6,25.9v-42H915.6C881.3,388.2,888.2,402.8,928.5,403.1Z" transform="translate(-874.81 -257.97)"/></svg>