<svg id="Camada_1" data-name="Camada 1" xmlns="http://www.w3.org/2000/svg" viewBox="0 0 264.67 265.8"><defs><style>.cls-1{fill:#faf7b4;}.cls-1,.cls-2,.cls-3,.cls-4,.cls-5{fill-rule:evenodd;}.cls-2{fill:#e0972a;}.cls-3{fill:#d68d20;}.cls-4{fill:#f9d865;}.cls-5{fill:#f0cb48;}</style></defs><title>pao</title><path class="cls-1" d="M857.3,392.5c-48.8,11.5-42.1,53.7-42.1,89.4,0,20.7-1.4,119,1.1,131,10.5,49.3,61.4,41.6,91.3,41.6,28.1,0,109.3,3.7,131.3-1.5,16.3-3.9,29.7-15.9,35.5-29.7,7.4-17.7,4.2-101.1,4.2-125.5,0-40.1,8.9-82.6-29.8-101.5-17.1-8.4-41.6-5.2-61.8-5.2C960.1,391.1,877.5,387.8,857.3,392.5Z" transform="translate(-814.81 -389.97)"/><path class="cls-2" d="M1016.85,502.5c-15-7.2-109.4-20.4-158,4.9-50.4,20.8-14.7,39.8,17.3,52.9,36.4,10.3,86,11.6,123,5.3,18.5-3.2,82.6-19,59.4-47.1-5.3-6.5-12.9-10.4-20.3-13.8C1026.75,499.2,1026.45,497.9,1016.85,502.5Z" transform="translate(-814.81 -389.97)"/><path class="cls-3" d="M943.25,492.6c-29.7-.4-61.9,3.1-84.4,14.8-50.4,20.8-14.7,39.8,17.3,52.9,19.8,5.6,43.6,8.6,67.1,9.1V492.6Z" transform="translate(-814.81 -389.97)"/><path class="cls-4" d="M1017.45,502.5c-4.7-3.1-20.4-16.7-36.4-8.3l1.4,43c1.1,6.2,2.3,5.9,2.2,13.3-10.2-8.7-10.6-18.4-12.1-28.4l-.8-32c-10.1-1.9-17.7-3.5-27.7,3.5-1.1,6.5-.6,22.2.8,28.7,1.4,7,4.7,23.2,4.6,29.6-20.9-22.1-11.2-50.4-16.9-64.2-12.7,3.5-16.9-2.1-30.2,10.1l12.5,52.3c-15.9-13.9-19.8-43.7-19.1-55.9-21.1-.3-24.4,6.9-30.2,10.7.8,13.2,6.4,28.8,11.8,42.7-13.3-4.5-19.5-36.3-19.4-43.5-50.4,20.8-14.1,46.8,19.1,56.2,36.4,10.3,86,11.6,123,5.3,18.5-3.2,82.6-19,59.4-47.1-5.3-6.5-12.9-10.4-20.3-13.8C1027.35,499.2,1027,497.9,1017.45,502.5Z" transform="translate(-814.81 -389.97)"/><path class="cls-5" d="M943.25,544.1c-12.8-20.6-5.8-44.2-10.9-56.4-12.7,3.5-16.9-2.1-30.2,10.1l12.5,52.3c-15.9-13.9-19.8-43.7-19.1-55.9-21.1-.3-24.4,6.9-30.2,10.7.8,13.2,6.4,28.8,11.8,42.7-13.3-4.5-19.5-36.3-19.4-43.5-50.4,20.8-14.1,46.8,19.1,56.2,19.7,5.6,43.2,8.5,66.5,9.1V544.1Z" transform="translate(-814.81 -389.97)"/></svg>