<svg id="Camada_1" data-name="Camada 1" xmlns="http://www.w3.org/2000/svg" viewBox="0 0 264.67 265.87"><defs><style>.cls-1{fill:#322133;}.cls-1,.cls-2,.cls-3,.cls-4,.cls-5,.cls-6,.cls-7{fill-rule:evenodd;}.cls-2{fill:#f7f7a8;}.cls-3{fill:#fcfcc2;}.cls-4{fill:#f8ae36;}.cls-5{fill:#f5bc5f;}.cls-6{fill:#f0504d;}.cls-7{fill:#f13430;}</style></defs><title>pizza</title><path class="cls-1" d="M735.3,314.55c-48.8,11.5-42.1,53.7-42.1,89.4,0,20.7-1.4,119,1.1,131,10.5,49.3,61.4,41.6,91.3,41.6,28.1,0,109.3,3.7,131.3-1.5,16.3-3.9,29.7-15.9,35.5-29.7,7.4-17.7,4.2-101.1,4.2-125.5,0-40.1,8.9-82.6-29.8-101.5-17.1-8.4-41.6-5.2-61.8-5.2C838.2,313.05,755.6,309.75,735.3,314.55Z" transform="translate(-692.81 -311.95)"/><path class="cls-2" d="M761.65,459c4.5-10.7,11.5-22,16.6-31.9a78.22,78.22,0,0,1,4.7-9c3.6-5.3.4-1.5,3.3-4,6.6-5.7,12.9-2.8,14.4-11.3,1.5-8.7-5.4-4.9-.1-17.1l20.5-37.1c3-4,.9-3.1,6-4.9l3.4,7.2c13.6,31.8-.7,8.5,4.2,30.3,17,6.4,8.2-8.6,32.4,38.3,5.9,11.4,22.5,37.9,24.6,47.8-16.3,1.5-15.9,10.4-30,13.9-17.5,4.3-21.8-4.4-35.2-6.8-22.9,1.5-22.5,15.2-42,12.8C771.85,485.45,760.35,472.55,761.65,459Z" transform="translate(-692.81 -311.95)"/><path class="cls-3" d="M761.65,459c4.5-10.7,11.5-22,16.6-31.9a78.22,78.22,0,0,1,4.7-9c3.6-5.3.4-1.5,3.3-4,6.6-5.7,12.9-2.8,14.4-11.3,1.5-8.7-5.4-4.9-.1-17.1l20.5-37.1c2.7-3.6,1.3-3.2,4.8-4.4v130.2c-22.1,1.8-22,15.1-41.2,12.8C771.85,485.45,760.35,472.55,761.65,459Z" transform="translate(-692.81 -311.95)"/><path class="cls-4" d="M761.65,459c-1.3,13.6,10.2,26.4,22.9,28,19.5,2.4,19.1-11.3,42-12.8,13.4,2.5,17.6,11.1,35.2,6.8,14.1-3.4,13.7-12.4,30-13.9l17.2,29.8c5.6.2,8.9-1.3,14.6.9l.3,9.8c-5.6,4.6-8.4,8.8-15.4,13a140.49,140.49,0,0,1-18.6,8.9c-14,5.7-30.3,8.3-46.4,9.8a107.81,107.81,0,0,1-14.8.9l14.8-.9-18.3,1.1,1.4-66.3-1.4,66.1c-37.7-.3-95.5-11.8-99-40.6a10.67,10.67,0,0,1,1.9-.9l13.5-2.9Z" transform="translate(-692.81 -311.95)"/><path class="cls-5" d="M761.65,459c-1.3,13.6,10.2,26.4,22.9,28,18.5,2.2,21.9-10,41.6-12.5v65.8c-37.7-.6-96.5-12.3-100-40.6a10.67,10.67,0,0,1,1.9-.9l13.5-2.9Z" transform="translate(-692.81 -311.95)"/><path class="cls-6" d="M819.35,420.15c-12.8-6.1-3.7-24.5,9.2-18.7C840,406.55,832.35,426.35,819.35,420.15Z" transform="translate(-692.81 -311.95)"/><path class="cls-7" d="M819.35,420.15c-11.2-5.4-5.6-20.2,4.7-19.8v21A12.1,12.1,0,0,1,819.35,420.15Z" transform="translate(-692.81 -311.95)"/><path class="cls-6" d="M786.55,459.65c-12.8-6.1-3.7-24.5,9.2-18.7C807.15,446.05,799.65,465.85,786.55,459.65Z" transform="translate(-692.81 -311.95)"/><path class="cls-7" d="M786.55,459.65c-11.2-5.4-5.6-20.2,4.7-19.8v21A13,13,0,0,1,786.55,459.65Z" transform="translate(-692.81 -311.95)"/><path class="cls-6" d="M856.75,460.65c-12.8-6.1-3.7-24.5,9.2-18.7C877.35,447.05,869.85,466.85,856.75,460.65Z" transform="translate(-692.81 -311.95)"/><path class="cls-7" d="M856.75,460.65c-11.2-5.4-5.6-20.2,4.7-19.8v21A13,13,0,0,1,856.75,460.65Z" transform="translate(-692.81 -311.95)"/></svg>